<svg width="378" height="282" viewBox="0 0 378 282" fill="none" xmlns="http://www.w3.org/2000/svg">
<g clip-path="url(#clip0_112_2873)">
<path d="M23.7329 233.011C23.7329 233.011 -40.0828 -20.1406 212.32 12.763C464.723 45.6666 287.575 214.559 309.431 239.156C331.287 263.753 83.276 319.16 23.7329 233.011Z" fill="#4F4F4F"/>
<path d="M90.8987 230.34L89.5199 227.599C89.0943 226.714 88.5326 225.659 87.8177 224.467C87.1028 223.275 86.4559 221.931 85.6048 220.484C84.7537 219.037 83.9026 217.471 82.8302 215.854C81.7578 214.237 80.6684 212.552 79.4258 210.747C78.1832 208.943 76.9576 207.343 75.5618 205.641C74.166 203.938 72.7532 202.236 71.3063 200.534C69.8594 198.832 68.2934 197.249 66.6933 195.734C65.0932 194.219 63.4932 192.772 61.9271 191.393C60.3611 190.014 58.744 188.772 57.144 187.682L54.863 185.98C54.114 185.486 53.3651 185.044 52.6501 184.584C51.2543 183.665 49.9096 182.882 48.701 182.286C47.4925 181.691 46.4541 181.078 45.569 180.686L42.7773 179.393L45.569 180.652C46.4881 181.044 47.5435 181.571 48.7351 182.218C49.9266 182.865 51.3054 183.58 52.7352 184.482C53.4332 184.925 54.1991 185.35 54.9651 185.844L57.2631 187.444C58.8802 188.499 60.4292 189.81 62.0974 191.104C63.7655 192.397 65.3656 193.844 66.9316 195.41C68.4977 196.976 70.0637 198.559 71.6297 200.16C73.1957 201.76 74.6086 203.564 75.9533 205.266C77.2981 206.968 78.6258 208.671 79.8854 210.373C81.1451 212.075 82.2685 213.777 83.2898 215.394C84.3111 217.011 85.3155 218.56 86.1495 220.024C86.9836 221.488 87.8517 222.799 88.4305 224.007C89.0092 225.216 89.6561 226.254 90.1327 227.122L91.5285 229.863L90.8987 230.34Z" fill="#3A2A23"/>
<path d="M318.84 109.687C318.84 109.687 352.731 110.283 367.217 97.7713C381.702 85.2601 361.02 70.3488 318.84 109.687Z" fill="#8A967E"/>
<path d="M301.684 186.321C301.684 186.321 331.625 205.437 349.26 202.254C366.895 199.07 354.18 174.457 301.684 186.321Z" fill="#8A967E"/>
<path d="M300.73 197.164C300.73 197.164 320.102 218.969 334.434 220.995C348.767 223.021 343.898 201.556 300.73 197.164Z" fill="#8A967E"/>
<path d="M314.348 130.608C314.348 130.608 352.477 135.715 369.959 123.612C387.44 111.509 365.414 91.8829 314.348 130.608Z" fill="#8A967E"/>
<path d="M303.828 171.256C303.828 171.256 339.064 186.406 358.299 179.478C377.534 172.55 360.92 148.004 303.828 171.256Z" fill="#8A967E"/>
<path d="M308.664 152.667C308.664 152.667 347.951 161.927 366.982 151.084C386.012 140.241 364.581 117.618 308.664 152.667Z" fill="#8A967E"/>
<path d="M326.434 87.0822C326.434 87.0822 360.478 84.1374 372.887 71.1326C385.296 58.1277 335.949 67.2175 326.434 87.0822Z" fill="#8A967E"/>
<path d="M336.137 66.7061C336.137 66.7061 365.074 60.7313 375.747 47.369C386.42 34.0067 345.788 46.0073 336.137 66.7061Z" fill="#8A967E"/>
<path d="M347.133 46.8068C347.133 46.8068 365.329 44.9684 373.364 34.4999C381.398 24.0313 359.746 31.0103 347.133 46.8068Z" fill="#8A967E"/>
<path d="M316.051 106.538C316.051 106.538 288.816 82.2989 283.709 61.8044C278.603 41.3098 302.434 44.544 316.051 106.538Z" fill="#8A967E"/>
<path d="M299.028 191.954C299.028 191.954 265.222 188.924 251.707 174.932C238.191 160.94 259.962 148.259 299.028 191.954Z" fill="#8A967E"/>
<path d="M297.512 203.701C297.512 203.701 271.179 207.837 258.549 199.326C245.919 190.815 260.404 176.925 297.512 203.701Z" fill="#8A967E"/>
<path d="M311.625 127.832C311.625 127.832 277.734 106.214 269.07 84.3232C260.406 62.4329 287.658 61.1051 311.625 127.832Z" fill="#8A967E"/>
<path d="M302.704 171.359C302.704 171.359 266.158 161.571 252.949 143.357C239.74 125.144 264.762 115.084 302.704 171.359Z" fill="#8A967E"/>
<path d="M306.945 150.455C306.945 150.455 269.599 133.093 258.33 111.73C247.061 90.3673 275.199 84.9884 306.945 150.455Z" fill="#8A967E"/>
<path d="M323.453 84.1887C323.453 84.1887 297.92 57.0896 294.516 37.6844C291.111 18.2793 325.938 61.4472 323.453 84.1887Z" fill="#8A967E"/>
<path d="M332.189 63.4554C332.189 63.4554 310.35 39.8458 307.303 21.7173C304.256 3.58886 333.227 39.7607 332.189 63.4554Z" fill="#8A967E"/>
<path d="M339.527 51.2339C339.527 51.2339 327.237 30.6372 332.497 8.06598C337.756 -14.5053 347.084 16.6111 339.527 51.2339Z" fill="#8A967E"/>
<path d="M347.711 41.2928C347.711 41.2928 340.051 24.2708 346.536 6.97635C353.022 -10.3181 357.243 14.7895 347.711 41.2928Z" fill="#8A967E"/>
<path d="M353.719 36.9347C353.719 36.9347 353.43 17.5806 365.805 5.78432C378.18 -6.01196 372.324 18.636 353.719 36.9347Z" fill="#8A967E"/>
<path d="M292.883 234.527C308.288 166.439 300.883 138.046 341.225 52.2381C351.217 30.9946 349.141 41.9227 354.503 34.416" stroke="#8A967E" stroke-width="1.7022" stroke-miterlimit="10"/>
<path d="M171.993 281.32C266.708 281.32 343.49 268.105 343.49 251.803C343.49 235.502 266.708 222.287 171.993 222.287C77.278 222.287 0.496094 235.502 0.496094 251.803C0.496094 268.105 77.278 281.32 171.993 281.32Z" fill="#E5D698"/>
<path opacity="0.1" d="M65.4818 253.725C78.8802 252.887 89.6152 250.184 89.4591 247.688C89.3029 245.193 78.3148 243.849 64.9163 244.687C51.5178 245.526 40.7828 248.228 40.939 250.724C41.0951 253.22 52.0833 254.564 65.4818 253.725Z" fill="#282828"/>
<path d="M64.3106 216.891C64.3106 216.891 61.9105 173.944 89.4692 160.582C89.4692 160.582 88.1245 207.92 64.3106 216.891Z" fill="#8A967E"/>
<path d="M65.2495 223.802C65.2495 223.802 32.6693 195.035 41.5378 154.012C41.5378 153.961 74.7478 190.201 65.2495 223.802Z" fill="#8A967E"/>
<path d="M71.2399 225.234C71.2399 225.234 32.736 214.288 28.0039 171.58C28.0039 171.58 69.4186 189.113 71.2399 225.234Z" fill="#9EA792"/>
<path d="M62.5601 212.585C62.5601 212.585 43.155 169.025 65.8283 137.875C65.8283 137.875 83.1738 188.362 62.5601 212.585Z" fill="#9EA792"/>
<path d="M89.0464 217.64C86.3058 246.425 88.4506 249.676 65.9985 251.361C41.9293 253.166 41.4527 250.476 36.295 221.59C34.0481 209.027 50.0318 209.793 62.7984 208.823C75.5649 207.853 90.0166 207.359 89.0464 217.64Z" fill="#897563"/>
<path opacity="0.1" d="M216.949 260.128C261.397 260.128 297.429 255.708 297.429 250.256C297.429 244.803 261.397 240.383 216.949 240.383C172.501 240.383 136.469 244.803 136.469 250.256C136.469 255.708 172.501 260.128 216.949 260.128Z" fill="#282828"/>
<path d="M56.0035 228.535C57.3968 228.432 58.7969 228.606 60.1228 229.046C60.8903 227.587 61.2324 225.941 61.1101 224.297C60.8207 220.195 58.0121 217.046 54.863 217.267C51.7139 217.488 49.3479 220.995 49.6372 225.097C49.7389 226.869 50.3804 228.568 51.4756 229.965C52.8484 229.132 54.4014 228.642 56.0035 228.535Z" fill="white"/>
<path d="M72.6352 227.376C74.023 227.272 75.4177 227.445 76.7375 227.887C77.523 226.44 77.8718 224.796 77.7418 223.155C77.4524 219.053 74.6608 215.921 71.4947 216.142C68.3286 216.363 65.9966 219.87 66.286 223.955C66.3974 225.72 67.038 227.411 68.1244 228.806C69.4875 227.966 71.0369 227.475 72.6352 227.376Z" fill="white"/>
<path d="M58.3017 223.889C59.1738 223.828 59.8153 222.843 59.7344 221.689C59.6536 220.536 58.881 219.65 58.0089 219.712C57.1367 219.773 56.4952 220.757 56.5761 221.911C56.657 223.064 57.4295 223.95 58.3017 223.889Z" fill="#282828"/>
<path d="M74.216 222.87C75.0903 222.808 75.7334 221.821 75.6525 220.665C75.5716 219.509 74.7972 218.621 73.9229 218.682C73.0486 218.743 72.4055 219.73 72.4864 220.887C72.5673 222.043 73.3417 222.931 74.216 222.87Z" fill="#282828"/>
<path d="M55.6133 240.058C56.4126 239.573 57.2494 239.152 58.1155 238.799C59.012 238.444 59.9268 238.137 60.8561 237.88C61.9297 237.595 63.0217 237.384 64.1243 237.25C65.2566 237.143 66.3964 237.143 67.5287 237.25C68.0461 237.288 68.5589 237.373 69.0607 237.505C69.5095 237.6 69.9528 237.719 70.3884 237.863C71.0392 238.07 71.6623 238.355 72.2438 238.714L72.9077 239.105L72.1757 238.867C71.5515 238.63 70.908 238.448 70.2522 238.322C69.8263 238.224 69.394 238.156 68.9586 238.118C68.4675 238.051 67.9731 238.011 67.4777 237.999C66.967 237.999 66.4393 237.999 65.9116 237.999C65.3839 237.999 64.8222 237.999 64.2094 238.101C62.2078 238.333 60.2273 238.72 58.2857 239.258C56.7027 239.701 55.6133 240.058 55.6133 240.058Z" fill="#282828"/>
<path opacity="0.8" d="M251.538 250.255H148.64C104.059 237.642 84.5518 76.7662 119.736 87.405C178.718 105.346 242.687 112.172 316.103 87.405C350.998 75.6257 331.78 237.642 287.165 250.255H184.301" fill="#FDD2AB"/>
<path d="M196.691 209.215C198.47 208.167 200.339 207.278 202.275 206.56C204.256 205.804 206.286 205.184 208.351 204.705C209.475 204.415 210.667 204.262 211.875 204.024C213.084 203.785 214.326 203.7 215.569 203.666C216.805 203.598 218.044 203.598 219.28 203.666L221.101 203.785C221.697 203.785 222.276 203.956 222.803 204.041L224.505 204.313L226.088 204.756C227.067 204.986 228.023 205.299 228.948 205.692C229.816 206.032 230.65 206.356 231.28 206.679L232.982 207.649L234.446 208.518L232.897 207.803L231.195 206.969L228.829 206.135C227.896 205.805 226.94 205.543 225.969 205.351L224.403 204.994L222.701 204.773C222.139 204.688 221.561 204.585 220.999 204.534H219.212C217.998 204.466 216.782 204.466 215.569 204.534C214.36 204.534 213.152 204.739 211.943 204.841C210.735 204.943 209.594 205.181 208.539 205.437C206.486 205.861 204.457 206.395 202.462 207.037C200.495 207.642 198.567 208.369 196.691 209.215Z" fill="#282828"/>
<path opacity="0.1" d="M307.54 98.5723C341.584 88.3591 308.834 238.596 282.416 238.596C268.39 238.596 194.31 237.847 158.444 239.702C123.243 241.523 96.6201 123.459 128.23 101.943C139.431 94.3508 215.06 126.574 307.54 98.5723Z" fill="#282828"/>
<path d="M162.852 98.0782C162.852 98.0782 215.961 11.7764 268.917 99.0654L281.224 97.0228C281.224 97.0228 224.098 -10.4204 149.898 95.8142" fill="#FDD2AB"/>
<path d="M242.04 176.515C237.446 176.544 232.906 177.505 228.694 179.341C225.753 174.77 224.171 169.457 224.133 164.021C223.928 150.506 232.235 139.424 242.67 139.271C253.104 139.118 261.734 149.944 261.939 163.459C262.077 169.264 260.451 174.974 257.275 179.835C252.54 177.51 247.312 176.37 242.04 176.515Z" fill="white"/>
<path d="M187.262 177.315C182.667 177.349 178.127 178.316 173.917 180.157C170.981 175.584 169.399 170.273 169.355 164.838C169.151 151.322 177.458 140.241 187.892 140.088C198.327 139.934 206.957 150.76 207.161 164.276C207.3 170.081 205.673 175.791 202.497 180.651C197.762 178.328 192.535 177.184 187.262 177.315Z" fill="white"/>
<path d="M231.415 175.789C234.291 175.747 236.578 172.619 236.522 168.802C236.466 164.986 234.088 161.926 231.212 161.969C228.336 162.011 226.049 165.139 226.105 168.955C226.161 172.772 228.538 175.831 231.415 175.789Z" fill="#282828"/>
<path d="M177.305 176.65C180.182 176.608 182.468 173.48 182.412 169.664C182.356 165.847 179.979 162.788 177.103 162.83C174.226 162.872 171.94 166 171.996 169.816C172.052 173.633 174.429 176.692 177.305 176.65Z" fill="#282828"/>
</g>
<defs>
<clipPath id="clip0_112_2873">
<rect width="377.004" height="281" fill="white" transform="translate(0.496094 0.320312)"/>
</clipPath>
</defs>
</svg>
